<svg width="204" height="170" viewBox="0 0 204 170" fill="none" xmlns="http://www.w3.org/2000/svg">
<path d="M102 145.37C145.69 145.37 181.107 143.647 181.107 141.522C181.107 139.396 145.69 137.673 102 137.673C58.3103 137.673 22.8928 139.396 22.8928 141.522C22.8928 143.647 58.3103 145.37 102 145.37Z" fill="#F5F5F5"/>
<path d="M125.57 40.766C125.238 39.8524 124.798 38.9686 124.256 38.1276L125.072 35.9006L119.797 31.501L117.125 32.181C116.115 31.7294 115.055 31.3627 113.958 31.0862L112.645 29.0462H105.178L103.869 31.0862C102.772 31.362 101.711 31.7288 100.703 32.181L98.0302 31.501L92.7507 35.9006L93.5667 38.1276C93.0278 38.9694 92.5892 39.853 92.257 40.766L89.7886 41.8608V48.0828L92.257 49.1742C92.5884 50.0874 93.0271 50.9712 93.5667 51.8126L92.7507 54.0396L98.0302 58.4392L100.703 57.7592C101.712 58.2089 102.773 58.5744 103.869 58.8506L105.178 60.8906H112.645L113.958 58.8506C115.054 58.5738 116.114 58.2082 117.125 57.7592L119.797 58.4392L125.076 54.0396L124.26 51.8126C124.803 50.9719 125.243 50.0881 125.574 49.1742L128.043 48.0828V41.8608L125.57 40.766ZM108.912 53.8084C106.813 53.8084 104.763 53.2899 103.018 52.3186C101.274 51.3472 99.9139 49.9666 99.111 48.3513C98.3081 46.736 98.098 44.9586 98.5074 43.2438C98.9167 41.529 99.927 39.9539 101.411 38.7176C102.894 37.4813 104.784 36.6394 106.842 36.2983C108.9 35.9572 111.033 36.1322 112.971 36.8013C114.909 37.4704 116.566 38.6034 117.732 40.0572C118.897 41.5109 119.52 43.22 119.52 44.9684C119.52 47.3129 118.402 49.5614 116.413 51.2192C114.423 52.877 111.725 53.8084 108.912 53.8084Z" fill="#0E2F79"/>
<path opacity="0.2" d="M125.57 40.766C125.238 39.8524 124.798 38.9686 124.256 38.1276L125.072 35.9006L119.797 31.501L117.125 32.181C116.115 31.7294 115.055 31.3627 113.958 31.0862L112.645 29.0462H105.178L103.869 31.0862C102.772 31.362 101.711 31.7288 100.703 32.181L98.0302 31.501L92.7507 35.9006L93.5667 38.1276C93.0278 38.9694 92.5892 39.853 92.257 40.766L89.7886 41.8608V48.0828L92.257 49.1742C92.5884 50.0874 93.0271 50.9712 93.5667 51.8126L92.7507 54.0396L98.0302 58.4392L100.703 57.7592C101.712 58.2089 102.773 58.5744 103.869 58.8506L105.178 60.8906H112.645L113.958 58.8506C115.054 58.5738 116.114 58.2082 117.125 57.7592L119.797 58.4392L125.076 54.0396L124.26 51.8126C124.803 50.9719 125.243 50.0881 125.574 49.1742L128.043 48.0828V41.8608L125.57 40.766ZM108.912 53.8084C106.813 53.8084 104.763 53.2899 103.018 52.3186C101.274 51.3472 99.9139 49.9666 99.111 48.3513C98.3081 46.736 98.098 44.9586 98.5074 43.2438C98.9167 41.529 99.927 39.9539 101.411 38.7176C102.894 37.4813 104.784 36.6394 106.842 36.2983C108.9 35.9572 111.033 36.1322 112.971 36.8013C114.909 37.4704 116.566 38.6034 117.732 40.0572C118.897 41.5109 119.52 43.22 119.52 44.9684C119.52 47.3129 118.402 49.5614 116.413 51.2192C114.423 52.877 111.725 53.8084 108.912 53.8084Z" fill="white"/>
<path d="M108.911 42.041C108.216 42.041 107.536 42.2129 106.958 42.5349C106.379 42.857 105.928 43.3147 105.662 43.8502C105.396 44.3858 105.326 44.975 105.462 45.5436C105.598 46.1121 105.933 46.6343 106.425 47.0442C106.916 47.4541 107.543 47.7332 108.225 47.8463C108.908 47.9594 109.615 47.9013 110.257 47.6795C110.9 47.4577 111.449 47.082 111.836 46.6001C112.222 46.1181 112.428 45.5515 112.428 44.9718C112.428 44.1945 112.058 43.449 111.398 42.8994C110.739 42.3498 109.844 42.041 108.911 42.041Z" fill="#0E2F79"/>
<path d="M178.704 50.6362C178.23 49.33 177.603 48.066 176.831 46.8622L177.998 43.6798L170.462 37.4L166.639 38.3758C165.2 37.7257 163.684 37.2016 162.115 36.8118L160.242 33.8742H149.573L147.696 36.8118C146.128 37.2028 144.611 37.7269 143.171 38.3758L139.352 37.4L131.809 43.6866L132.975 46.869C132.201 48.0714 131.573 49.3358 131.103 50.643L127.573 52.2036V61.0946L131.099 62.6586C131.568 63.9649 132.196 65.2283 132.971 66.4292L131.804 69.6082L139.348 75.8948L143.167 74.9224C144.609 75.5693 146.126 76.0911 147.696 76.4796L149.573 79.4206H160.242L162.115 76.483C163.683 76.0903 165.198 75.5663 166.639 74.919L170.462 75.8914L178.006 69.6048L176.839 66.4224C177.609 65.2199 178.233 63.9568 178.704 62.6518L182.229 61.0878V52.1968L178.704 50.6362ZM154.905 72.76C151.08 72.76 147.34 71.8146 144.159 70.0434C140.978 68.2722 138.499 65.7547 137.035 62.8092C135.57 59.8638 135.187 56.6227 135.934 53.4959C136.68 50.369 138.522 47.4968 141.228 45.2425C143.933 42.9881 147.379 41.4529 151.132 40.8309C154.884 40.209 158.773 40.5282 162.308 41.7482C165.842 42.9683 168.863 45.0343 170.989 47.6851C173.114 50.336 174.249 53.4525 174.249 56.6406C174.249 58.7574 173.748 60.8535 172.776 62.8092C171.804 64.7649 170.379 66.5419 168.583 68.0387C166.787 69.5356 164.655 70.7229 162.308 71.533C159.961 72.3431 157.446 72.76 154.905 72.76Z" fill="#0E2F79"/>
<path d="M154.905 42.7822C151.616 42.7829 148.4 43.5964 145.665 45.12C142.93 46.6435 140.799 48.8087 139.54 51.3417C138.282 53.8746 137.953 56.6617 138.595 59.3504C139.238 62.0391 140.822 64.5087 143.149 66.447C145.475 68.3852 148.439 69.7051 151.666 70.2397C154.892 70.7743 158.237 70.4996 161.276 69.4503C164.315 68.401 166.913 66.6243 168.741 64.3448C170.568 62.0654 171.544 59.3855 171.544 56.644C171.538 52.9684 169.783 49.4447 166.664 46.846C163.545 44.2473 159.316 42.7858 154.905 42.7822ZM154.905 68.6596C152.053 68.6603 149.265 67.9561 146.894 66.6363C144.522 65.3164 142.673 63.44 141.581 61.2445C140.489 59.049 140.203 56.633 140.759 54.302C141.315 51.9709 142.688 49.8296 144.704 48.1489C146.721 46.4681 149.29 45.3234 152.087 44.8595C154.884 44.3956 157.783 44.6334 160.418 45.5427C163.053 46.452 165.305 47.9921 166.89 49.9681C168.474 51.9442 169.32 54.2674 169.32 56.644C169.316 59.829 167.796 62.8826 165.094 65.1351C162.391 67.3876 158.727 68.6551 154.905 68.6596Z" fill="#0E2F79"/>
<path opacity="0.2" d="M154.905 42.7822C151.616 42.7829 148.4 43.5964 145.665 45.12C142.93 46.6435 140.799 48.8087 139.54 51.3417C138.282 53.8746 137.953 56.6617 138.595 59.3504C139.238 62.0391 140.822 64.5087 143.149 66.447C145.475 68.3852 148.439 69.7051 151.666 70.2397C154.892 70.7743 158.237 70.4996 161.276 69.4503C164.315 68.401 166.913 66.6243 168.741 64.3448C170.568 62.0654 171.544 59.3855 171.544 56.644C171.538 52.9684 169.783 49.4447 166.664 46.846C163.545 44.2473 159.316 42.7858 154.905 42.7822ZM154.905 68.6596C152.053 68.6603 149.265 67.9561 146.894 66.6363C144.522 65.3164 142.673 63.44 141.581 61.2445C140.489 59.049 140.203 56.633 140.759 54.302C141.315 51.9709 142.688 49.8296 144.704 48.1489C146.721 46.4681 149.29 45.3234 152.087 44.8595C154.884 44.3956 157.783 44.6334 160.418 45.5427C163.053 46.452 165.305 47.9921 166.89 49.9681C168.474 51.9442 169.32 54.2674 169.32 56.644C169.316 59.829 167.796 62.8826 165.094 65.1351C162.391 67.3876 158.727 68.6551 154.905 68.6596Z" fill="black"/>
<path d="M116.688 80.2944C116.58 80.2944 116.476 80.2586 116.4 80.1948C116.323 80.1311 116.28 80.0446 116.28 79.9544V79.2744C116.28 79.1842 116.323 79.0977 116.4 79.034C116.476 78.9702 116.58 78.9344 116.688 78.9344C116.796 78.9344 116.9 78.9702 116.977 79.034C117.053 79.0977 117.096 79.1842 117.096 79.2744V79.9544C117.096 80.0446 117.053 80.1311 116.977 80.1948C116.9 80.2586 116.796 80.2944 116.688 80.2944Z" fill="#0E2F79"/>
<path d="M110.335 71.5088C109.961 71.3081 109.668 71.0178 109.495 70.6758C109.452 70.5928 109.372 70.5274 109.271 70.494C109.17 70.4605 109.058 70.4617 108.958 70.4973C108.859 70.5329 108.78 70.6 108.74 70.6839C108.7 70.7677 108.701 70.8614 108.744 70.9444C108.984 71.4087 109.383 71.8038 109.891 72.08C109.956 72.1154 110.033 72.1342 110.111 72.1344C110.199 72.135 110.285 72.1116 110.357 72.0679C110.428 72.0241 110.48 71.9623 110.505 71.8918C110.53 71.8213 110.527 71.7458 110.497 71.6767C110.466 71.6077 110.41 71.5487 110.335 71.5088Z" fill="#0E2F79"/>
<path d="M108.912 67.2622C109.02 67.2622 109.124 67.2264 109.2 67.1626C109.277 67.0989 109.32 67.0124 109.32 66.9222V65.62C109.32 65.5298 109.277 65.4433 109.2 65.3796C109.124 65.3158 109.02 65.28 108.912 65.28C108.803 65.28 108.7 65.3158 108.623 65.3796C108.547 65.4433 108.504 65.5298 108.504 65.62V66.9222C108.504 67.0124 108.547 67.0989 108.623 67.1626C108.7 67.2264 108.803 67.2622 108.912 67.2622Z" fill="#0E2F79"/>
<path d="M113.159 71.808H111.592C111.484 71.808 111.38 71.8438 111.304 71.9076C111.227 71.9713 111.184 72.0578 111.184 72.148C111.184 72.2382 111.227 72.3247 111.304 72.3884C111.38 72.4522 111.484 72.488 111.592 72.488H113.159C113.267 72.488 113.371 72.4522 113.447 72.3884C113.524 72.3247 113.567 72.2382 113.567 72.148C113.567 72.0578 113.524 71.9713 113.447 71.9076C113.371 71.8438 113.267 71.808 113.159 71.808Z" fill="#0E2F79"/>
<path d="M109.32 69.53V68.2278C109.32 68.1376 109.277 68.0511 109.2 67.9874C109.124 67.9236 109.02 67.8878 108.912 67.8878C108.803 67.8878 108.7 67.9236 108.623 67.9874C108.547 68.0511 108.504 68.1376 108.504 68.2278V69.53C108.504 69.6202 108.547 69.7066 108.623 69.7704C108.7 69.8342 108.803 69.87 108.912 69.87C109.02 69.87 109.124 69.8342 109.2 69.7704C109.277 69.7066 109.32 69.6202 109.32 69.53Z" fill="#0E2F79"/>
<path d="M117.072 74.018C117.057 73.9288 117.001 73.8479 116.916 73.7931C116.83 73.7383 116.722 73.714 116.615 73.7256C116.561 73.733 116.511 73.7491 116.465 73.773C116.419 73.7968 116.38 73.828 116.349 73.8647C116.318 73.9014 116.295 73.9428 116.284 73.9866C116.272 74.0304 116.271 74.0758 116.28 74.12C116.293 74.1989 116.3 74.2784 116.3 74.358V75.378C116.3 75.4682 116.343 75.5546 116.42 75.6184C116.496 75.6822 116.6 75.718 116.708 75.718C116.817 75.718 116.92 75.6822 116.997 75.6184C117.073 75.5546 117.116 75.4682 117.116 75.378V74.358C117.11 74.244 117.095 74.1304 117.072 74.018Z" fill="#0E2F79"/>
<path d="M116.688 76.3266C116.58 76.3266 116.476 76.3624 116.4 76.4262C116.323 76.4899 116.28 76.5764 116.28 76.6666V77.9722C116.28 78.0624 116.323 78.1489 116.4 78.2126C116.476 78.2764 116.58 78.3122 116.688 78.3122C116.796 78.3122 116.9 78.2764 116.977 78.2126C117.053 78.1489 117.096 78.0624 117.096 77.9722V76.6666C117.096 76.5764 117.053 76.4899 116.977 76.4262C116.9 76.3624 116.796 76.3266 116.688 76.3266Z" fill="#0E2F79"/>
<path d="M116.333 72.6682C115.934 72.288 115.406 72.0168 114.819 71.8896C114.767 71.8784 114.713 71.8759 114.66 71.8822C114.607 71.8884 114.556 71.9034 114.51 71.9261C114.463 71.9488 114.423 71.9789 114.391 72.0147C114.359 72.0504 114.335 72.0911 114.322 72.1344C114.308 72.1777 114.305 72.2228 114.313 72.2671C114.32 72.3114 114.338 72.354 114.365 72.3925C114.393 72.431 114.429 72.4647 114.472 72.4916C114.515 72.5184 114.563 72.538 114.615 72.5492C115.044 72.6414 115.43 72.8393 115.721 73.117C115.759 73.1533 115.806 73.1823 115.859 73.2023C115.912 73.2222 115.969 73.2325 116.027 73.2326C116.105 73.2325 116.182 73.2136 116.248 73.1781C116.314 73.1427 116.366 73.0921 116.398 73.0326C116.431 72.973 116.442 72.907 116.43 72.8424C116.419 72.7778 116.385 72.7173 116.333 72.6682Z" fill="#0E2F79"/>
<path d="M108.912 64.6408C108.803 64.6408 108.7 64.605 108.623 64.5412C108.547 64.4774 108.504 64.391 108.504 64.3008V63.6208C108.504 63.5306 108.547 63.4441 108.623 63.3804C108.7 63.3166 108.803 63.2808 108.912 63.2808C109.02 63.2808 109.124 63.3166 109.2 63.3804C109.277 63.4441 109.32 63.5306 109.32 63.6208V64.3008C109.32 64.391 109.277 64.4774 109.2 64.5412C109.124 64.605 109.02 64.6408 108.912 64.6408Z" fill="#0E2F79"/>
<path d="M136.015 97.4134H41.5466V98.6748H136.015V97.4134Z" fill="#0E2F79"/>
<path d="M136.015 98.6748H156.513V97.4134H136.015V98.6748Z" fill="#0E2F79"/>
<path opacity="0.2" d="M136.015 98.6748H156.513V97.4134H136.015V98.6748Z" fill="black"/>
<path d="M149.667 100.025H48.3929L45.0065 98.6748H153.053L149.667 100.025Z" fill="#0E2F79"/>
<path opacity="0.6" d="M149.667 100.025H48.3929L45.0065 98.6748H153.053L149.667 100.025Z" fill="white"/>
<path d="M51.4529 100.025V140.26H52.7503L54.3823 100.025H51.4529Z" fill="#0E2F79"/>
<path d="M66.7692 100.025V140.26H68.0666L69.6986 100.025H66.7692Z" fill="#0E2F79"/>
<path d="M149.667 100.025V140.26H148.373L146.737 100.025H149.667Z" fill="#0E2F79"/>
<path d="M134.354 100.025V140.26H133.057L131.425 100.025H134.354Z" fill="#0E2F79"/>
<path d="M103.526 82.1406L99.2624 96.6144L99.144 97.4134H128.553L128.675 96.6144L132.935 82.1406H103.526Z" fill="#0E2F79"/>
<path opacity="0.3" d="M103.526 82.1406L99.2624 96.6144L99.144 97.4134H128.553L128.675 96.6144L132.935 82.1406H103.526Z" fill="black"/>
<path d="M132.033 82.1406H102.62L98.3606 96.6144H127.769L132.033 82.1406Z" fill="#0E2F79"/>
<path d="M127.145 95.9514L131.021 82.8036H103.244L99.3724 95.9514H127.145Z" fill="white"/>
<path d="M120.107 96.6144L119.985 97.4134H87.6017L87.72 96.6144H120.107Z" fill="#0E2F79"/>
<path opacity="0.6" d="M120.107 96.6144L119.985 97.4134H87.6017L87.72 96.6144H120.107Z" fill="white"/>
<path d="M58.9315 94.7818C58.911 94.2639 58.6677 93.7695 58.246 93.3887C57.8243 93.0079 57.2523 92.7663 56.6345 92.7078V92.3168C56.634 92.2942 56.628 92.2719 56.617 92.2512C56.606 92.2305 56.5902 92.2119 56.5704 92.1963C56.5507 92.1808 56.5274 92.1687 56.502 92.1608C56.4765 92.1529 56.4494 92.1493 56.4223 92.1502H52.0159C51.9886 92.1493 51.9613 92.1529 51.9356 92.1608C51.91 92.1686 51.8864 92.1807 51.8664 92.1961C51.8463 92.2116 51.83 92.2302 51.8186 92.2509C51.8072 92.2716 51.8007 92.294 51.7997 92.3168V97.4168H56.6345V96.8592C57.2533 96.8013 57.8263 96.5594 58.2483 96.1777C58.6702 95.7961 58.9128 95.3005 58.9315 94.7818ZM56.6345 96.1996V93.3674C57.0422 93.4175 57.4148 93.5881 57.6841 93.848C57.9535 94.108 58.1017 94.44 58.1017 94.7835C58.1017 95.127 57.9535 95.459 57.6841 95.7189C57.4148 95.9789 57.0422 96.1495 56.6345 96.1996Z" fill="#0E2F79"/>
<path d="M141.396 97.4134H145.493L144.281 89.9368H141.396V97.4134Z" fill="#263238"/>
<path d="M135.391 97.4134H143.151L144.591 88.6618H136.835L135.391 97.4134Z" fill="#0E2F79"/>
<path opacity="0.3" d="M135.391 97.4134H143.151L144.591 88.6618H136.835L135.391 97.4134Z" fill="black"/>
<path d="M134.354 97.4134H142.429L143.873 88.6618H135.799L134.354 97.4134Z" fill="#0E2F79"/>
<path opacity="0.4" d="M141.715 96.7232L142.931 89.352H136.513L135.297 96.7232H141.715Z" fill="white"/>
<path d="M80.5964 84.4934L80.2618 84.7926L79.9028 85.1326C79.662 85.3638 79.4213 85.5984 79.1928 85.8398C78.7359 86.3226 78.2952 86.8156 77.8832 87.3222C77.0633 88.302 76.3789 89.3559 75.8432 90.4638C75.5936 90.9904 75.3998 91.5342 75.2638 92.089C75.1985 92.4018 75.1577 92.5378 75.1373 92.6704C75.1147 92.7761 75.1147 92.8843 75.1373 92.99C75.2057 93.1562 75.3131 93.3094 75.4532 93.4408C75.5933 93.5721 75.7633 93.6789 75.9533 93.755C76.2288 93.8965 76.5181 94.0182 76.8183 94.1188C76.976 94.1732 77.1392 94.2242 77.3079 94.2718C77.4629 94.3194 77.6588 94.367 77.7812 94.4078V96.2812C77.4956 96.3152 77.2875 96.3424 77.0468 96.356C76.806 96.3696 76.5735 96.373 76.3328 96.356C75.8379 96.3477 75.3455 96.2953 74.864 96.1996C74.3215 96.0934 73.8014 95.9191 73.3217 95.6828C72.7577 95.4078 72.273 95.0329 71.9019 94.5846C71.5198 94.1074 71.2665 93.5669 71.1593 93.0002C71.132 92.8675 71.1143 92.7335 71.1063 92.599C71.0982 92.4699 71.0982 92.3405 71.1063 92.2114V92.021C71.1017 91.9701 71.1017 91.9189 71.1063 91.868L71.1389 91.5688C71.2433 90.7917 71.4401 90.0252 71.7264 89.2806C72.279 87.8503 73.0569 86.4875 74.0398 85.2278C74.512 84.6093 75.0256 84.0134 75.578 83.4428C75.8513 83.1572 76.1328 82.8784 76.4266 82.603C76.5694 82.4636 76.7204 82.3276 76.8754 82.1916C77.0304 82.0556 77.1732 81.9366 77.3854 81.7666L80.5964 84.4934Z" fill="#B55B52"/>
<path d="M76.9692 94.367L78.8705 93.2042L79.9517 96.4614C79.9517 96.4614 78.2667 96.9816 76.9815 96.2812L76.9692 94.367Z" fill="#B55B52"/>
<path d="M81.5102 92.4222L82.2528 95.149L79.9517 96.4614L78.8705 93.2042L81.5102 92.4222Z" fill="#B55B52"/>
<path d="M93.534 71.995C93.4484 72.1956 93.5096 72.3962 93.6687 72.4404C93.8278 72.4846 94.0236 72.3622 94.1052 72.1616C94.1868 71.961 94.1297 71.757 93.9747 71.7128C93.8196 71.6686 93.6197 71.791 93.534 71.995Z" fill="#263238"/>
<path d="M93.4892 72.3894C93.521 73.0896 93.6679 73.7829 93.9258 74.4498C93.7203 74.4989 93.5045 74.5103 93.2932 74.4833C93.0819 74.4563 92.8802 74.3915 92.7018 74.2934L93.4892 72.3894Z" fill="#A02724"/>
<path d="M93.1424 70.6282C93.1729 70.6367 93.2058 70.6367 93.2363 70.6282C93.4153 70.5784 93.6059 70.5648 93.7924 70.5884C93.979 70.6121 94.1562 70.6723 94.3093 70.7642C94.34 70.7827 94.3779 70.791 94.4156 70.7873C94.4533 70.7836 94.4879 70.7682 94.5125 70.7442C94.5372 70.7202 94.5502 70.6894 94.5488 70.6578C94.5474 70.6262 94.5318 70.5962 94.5051 70.5738C94.3136 70.4549 94.0907 70.3758 93.8551 70.3433C93.6195 70.3108 93.3779 70.3257 93.1506 70.3868C93.1208 70.3953 93.095 70.4113 93.0767 70.4327C93.0584 70.454 93.0486 70.4796 93.0486 70.5058C93.0486 70.532 93.0584 70.5576 93.0767 70.5789C93.095 70.6002 93.1208 70.6163 93.1506 70.6248L93.1424 70.6282Z" fill="#263238"/>
<path d="M84.5866 72.7362C85.0435 74.6708 85.4964 78.217 83.8726 79.509C83.8726 79.509 84.509 81.4708 88.8257 81.4708C93.5707 81.4708 91.0942 79.509 91.0942 79.509C88.5034 78.9922 88.5686 77.3908 89.0215 75.888L84.5866 72.7362Z" fill="#B55B52"/>
<path d="M83.2524 80.1822C82.9097 79.56 82.5384 78.8494 83.3095 78.6284C84.1623 78.3836 88.8298 78.132 90.4373 78.591C90.6498 78.6392 90.8487 78.7222 91.0223 78.8352C91.1958 78.9482 91.3406 79.089 91.4481 79.2492C91.5556 79.4094 91.6237 79.5858 91.6484 79.7682C91.6731 79.9506 91.6539 80.1353 91.5919 80.3114L83.2524 80.1822Z" fill="#263238"/>
<path d="M99.552 83.5006C100.552 85 101.625 86.5436 102.71 88.026C103.795 89.5084 104.934 90.984 106.149 92.3304C106.451 92.6704 106.765 92.9934 107.076 93.3164C107.231 93.483 107.394 93.619 107.553 93.772L107.79 93.9964L107.851 94.0542L107.879 94.0814L107.908 94.112C108.098 94.2652 108.326 94.3813 108.577 94.452C108.963 94.5638 109.36 94.6446 109.764 94.6934C111.748 94.8602 113.747 94.8409 115.725 94.6356L116.345 96.4376C115.794 96.6416 115.28 96.7776 114.734 96.9476C114.187 97.1176 113.648 97.2298 113.102 97.3454C111.943 97.5876 110.755 97.7199 109.56 97.7398C108.89 97.7488 108.22 97.6929 107.565 97.5732C106.761 97.4401 106.003 97.159 105.346 96.7504L105.072 96.5634L105.007 96.5158L104.966 96.4818L104.889 96.4172L104.57 96.1554C104.362 95.982 104.134 95.8154 103.946 95.6318C103.538 95.2748 103.155 94.9178 102.8 94.5506C101.374 93.1151 100.059 91.6059 98.8625 90.032C98.2668 89.2568 97.6929 88.4737 97.1407 87.6826C96.5858 86.8836 96.0514 86.1016 95.5332 85.2584L99.552 83.5006Z" fill="#B55B52"/>
<path d="M78.1892 80.1074C75.2108 80.6752 71.7999 87.4378 71.7999 87.4378L77.7771 90.8378C79.2637 89.0613 80.5828 87.1913 81.7225 85.2448C83.4891 82.1644 81.2329 79.526 78.1892 80.1074Z" fill="#0E2F79"/>
<path opacity="0.2" d="M80.319 84.4186L77.4956 90.6882L77.773 90.8514C77.773 90.8514 78.997 89.42 80.319 87.4888V84.4186Z" fill="black"/>
<path d="M95.978 80.24C95.978 80.24 99.3562 83.4224 96.1657 103.108H79.1807C79.0664 100.936 80.7025 90.3414 78.1892 80.104C80.0663 79.8028 81.9647 79.6029 83.8727 79.5056C86.2778 79.3882 88.6891 79.3882 91.0943 79.5056C92.7427 79.6439 94.3756 79.8895 95.978 80.24Z" fill="#0E2F79"/>
<path opacity="0.2" d="M94.089 85.935C94.5321 88.1693 95.6908 90.2626 97.4427 91.9938C97.5121 90.7256 97.5407 89.5866 97.5366 88.57L94.089 85.935Z" fill="black"/>
<path d="M92.616 82.3888C92.208 84.8946 98.124 91.2934 98.124 91.2934L104.077 87.8934C104.077 87.8934 102.424 84.3676 99.6458 82.0556C96.4798 79.4036 93.0811 79.662 92.616 82.3888Z" fill="#0E2F79"/>
<path d="M115.056 94.6526L117.48 93.823L119.972 95.3938C119.972 95.3938 117.594 97.1482 115.431 96.4648L115.056 94.6526Z" fill="#B55B52"/>
<path d="M119.079 93.7414L120.907 94.8294L119.96 95.3938L117.467 93.823L119.079 93.7414Z" fill="#B55B52"/>
<path d="M85.6433 69.2274C84.7947 71.757 84.1419 73.202 85.1129 74.9054C86.5695 77.4724 90.7107 77.401 92.4569 75.1366C94.0236 73.0966 95.1497 69.3022 92.6527 67.4764C92.1045 67.0706 91.4409 66.7883 90.7249 66.6565C90.009 66.5246 89.2644 66.5475 88.562 66.7229C87.8597 66.8984 87.2228 67.2206 86.7119 67.6589C86.2011 68.0973 85.8332 68.6372 85.6433 69.2274Z" fill="#B55B52"/>
<path d="M92.1061 69.2546C90.8821 72.1582 89.4418 75.3474 85.9249 74.7422C83.6564 74.3512 83.4769 71.3082 82.6609 69.9244C81.9387 68.7106 81.9836 66.2694 83.4769 66.2388C82.8077 65.4296 86.1901 62.4682 88.4993 64.0322C89.0909 63.3522 93.3545 61.3496 96.5125 64.5286C99.4868 67.5342 98.0302 70.04 92.1061 69.2546Z" fill="#263238"/>
<path d="M89.352 71.111C89.2703 71.7596 89.4451 72.4126 89.8498 72.9708C90.3924 73.6984 91.188 73.4196 91.4818 72.675C91.7429 71.995 91.7715 70.822 91.0167 70.3494C90.2619 69.8768 89.4663 70.329 89.352 71.111Z" fill="#B55B52"/>
<path d="M115.415 138.339C115.823 138.339 116.231 138.292 116.349 138.139C116.383 138.098 116.401 138.05 116.401 138.001C116.401 137.952 116.383 137.904 116.349 137.863C116.295 137.792 116.211 137.739 116.113 137.717C115.582 137.598 114.481 138.125 114.428 138.149C114.414 138.155 114.403 138.164 114.396 138.176C114.389 138.188 114.388 138.201 114.391 138.213C114.394 138.226 114.4 138.237 114.411 138.246C114.421 138.255 114.434 138.261 114.448 138.264C114.767 138.313 115.091 138.338 115.415 138.339ZM115.921 137.826C115.968 137.82 116.016 137.82 116.064 137.826C116.095 137.831 116.124 137.841 116.149 137.856C116.175 137.872 116.196 137.891 116.211 137.914C116.264 137.992 116.247 138.03 116.211 138.05C116.064 138.224 115.26 138.227 114.668 138.156C115.056 137.979 115.482 137.867 115.921 137.826Z" fill="#0E2F79"/>
<path d="M114.456 138.264H114.489C114.872 138.122 115.631 137.55 115.57 137.244C115.57 137.173 115.497 137.088 115.293 137.068C115.219 137.062 115.146 137.069 115.076 137.088C115.006 137.107 114.941 137.137 114.885 137.176C114.477 137.452 114.395 138.166 114.391 138.196C114.39 138.207 114.391 138.218 114.396 138.228C114.401 138.238 114.409 138.247 114.42 138.254C114.431 138.26 114.443 138.263 114.456 138.264ZM115.231 137.193H115.276C115.411 137.193 115.419 137.251 115.423 137.265C115.46 137.445 114.942 137.894 114.55 138.088C114.583 137.788 114.725 137.504 114.958 137.275C115.034 137.221 115.131 137.192 115.231 137.193Z" fill="#0E2F79"/>
<path d="M110.764 138.203H113.938L114.66 132.073H111.486L110.764 138.203Z" fill="#B55B52"/>
<path d="M114.118 137.897H110.654C110.59 137.897 110.528 137.916 110.478 137.949C110.429 137.982 110.394 138.029 110.38 138.081L109.752 140.42C109.736 140.477 109.735 140.536 109.751 140.593C109.767 140.651 109.798 140.704 109.842 140.75C109.886 140.795 109.942 140.832 110.005 140.857C110.069 140.881 110.139 140.894 110.209 140.893C111.457 140.876 113.265 140.814 114.836 140.814C116.676 140.814 118.263 140.896 120.417 140.896C121.723 140.896 122.086 139.798 121.539 139.699C119.054 139.247 117.027 139.199 114.881 138.094C114.653 137.971 114.389 137.903 114.118 137.897Z" fill="#263238"/>
<path opacity="0.2" d="M114.656 132.076L114.289 135.235H111.111L111.482 132.076H114.656Z" fill="black"/>
<path d="M102.69 138.336C102.824 138.35 102.961 138.343 103.092 138.313C103.223 138.283 103.346 138.232 103.453 138.162C103.49 138.119 103.51 138.068 103.51 138.015C103.51 137.961 103.49 137.91 103.453 137.867C103.428 137.829 103.395 137.797 103.354 137.772C103.313 137.746 103.266 137.729 103.216 137.72C102.751 137.629 101.874 138.128 101.837 138.149C101.825 138.156 101.816 138.166 101.81 138.178C101.805 138.189 101.803 138.201 101.804 138.213C101.807 138.225 101.814 138.236 101.824 138.244C101.834 138.253 101.847 138.259 101.861 138.261C102.133 138.31 102.411 138.336 102.69 138.336ZM103.098 137.833C103.127 137.829 103.158 137.829 103.187 137.833C103.217 137.836 103.244 137.845 103.268 137.86C103.293 137.874 103.312 137.892 103.326 137.914C103.395 138.02 103.355 138.06 103.326 138.077C103.191 138.224 102.543 138.227 102.065 138.162C102.372 137.989 102.723 137.877 103.089 137.833H103.098Z" fill="#0E2F79"/>
<path d="M101.882 138.264H101.914C102.245 138.115 102.881 137.537 102.812 137.244C102.801 137.198 102.772 137.155 102.728 137.125C102.684 137.094 102.628 137.078 102.571 137.078C102.514 137.072 102.457 137.076 102.402 137.09C102.347 137.104 102.296 137.128 102.253 137.159C101.886 137.411 101.808 138.179 101.804 138.207C101.804 138.218 101.807 138.229 101.814 138.239C101.82 138.249 101.829 138.258 101.841 138.264C101.854 138.268 101.868 138.268 101.882 138.264ZM102.522 137.193H102.555C102.653 137.193 102.661 137.241 102.665 137.258C102.706 137.431 102.298 137.87 101.971 138.077C101.993 137.776 102.124 137.486 102.347 137.248C102.396 137.213 102.458 137.193 102.522 137.193Z" fill="#0E2F79"/>
<path d="M98.2424 138.203H101.417L103.012 132.073H99.8377L98.2424 138.203Z" fill="#B55B52"/>
<path d="M101.641 137.897H98.0751C98.0118 137.898 97.9506 137.916 97.9016 137.949C97.8526 137.983 97.8188 138.029 97.8058 138.081L97.1775 140.42C97.1627 140.477 97.1637 140.537 97.1804 140.594C97.197 140.651 97.2288 140.704 97.2735 140.75C97.3182 140.795 97.3746 140.831 97.4385 140.856C97.5024 140.881 97.5721 140.893 97.6426 140.893C98.887 140.876 99.4949 140.814 101.062 140.814C102.029 140.814 103.265 140.896 104.599 140.896C105.933 140.896 106.104 139.798 105.558 139.699C103.11 139.254 102.942 138.638 102.159 138.05C102.015 137.948 101.83 137.894 101.641 137.897Z" fill="#263238"/>
<g opacity="0.2">
<path d="M99.8376 132.076H103.012L102.188 135.235H99.0134L99.8376 132.076Z" fill="black"/>
</g>
<path d="M96.1657 103.112C96.1657 103.112 119.952 105.21 119.691 115.321C119.522 121.672 118.057 127.952 115.358 133.892H110.642C110.642 133.892 110.882 127.476 110.723 117.123C110.674 114.019 103.155 112.996 95.8066 112.635C92.695 112.472 89.6999 111.588 87.1594 110.082C84.6188 108.575 82.634 106.508 81.4287 104.111L80.9269 103.112H96.1657Z" fill="#263238"/>
<path d="M116.513 132.838C116.537 132.838 116.207 134.698 116.207 134.698H109.679L109.499 133.039L116.513 132.838Z" fill="#0E2F79"/>
<path d="M91.0738 103.112C91.0738 103.112 108.316 107.872 108.752 113.774C109.568 124.634 103.159 133.892 103.159 133.892H98.3974C98.3974 133.892 100.205 129.302 100.845 119.462C101.661 107.103 73.9868 119.442 79.1725 103.112H91.0738Z" fill="#263238"/>
<path d="M104.599 132.838C104.623 132.838 103.999 134.698 103.999 134.698H97.4712L97.5895 133.039L104.599 132.838Z" fill="#0E2F79"/>
<path d="M103.51 113.523H76.9896C76.9896 112.854 77.3086 112.212 77.8763 111.739C78.4441 111.266 79.2141 111 80.017 111H100.482C101.285 111 102.055 111.266 102.623 111.739C103.191 112.212 103.51 112.854 103.51 113.523Z" fill="#0E2F79"/>
<path d="M78.2178 113.519L74.2194 141.454H75.0762L80.1476 113.519H78.2178Z" fill="#0E2F79"/>
<path opacity="0.4" d="M78.2178 113.519L74.2194 141.454H75.0762L80.1476 113.519H78.2178Z" fill="black"/>
<path d="M83.5667 113.519L83.4891 141.454H84.3419L85.4965 113.519H83.5667Z" fill="#0E2F79"/>
<path opacity="0.4" d="M83.5667 113.519L83.4891 141.454H84.3419L85.4965 113.519H83.5667Z" fill="black"/>
<path d="M102.282 113.519L106.28 141.454H105.423L100.356 113.519H102.282Z" fill="#0E2F79"/>
<path opacity="0.4" d="M102.282 113.519L106.28 141.454H105.423L100.356 113.519H102.282Z" fill="black"/>
<path d="M96.9326 113.519L97.0102 141.454H96.1574L95.0028 113.519H96.9326Z" fill="#0E2F79"/>
<path opacity="0.4" d="M96.9326 113.519L97.0102 141.454H96.1574L95.0028 113.519H96.9326Z" fill="black"/>
</svg>
