<svg width="220" height="170" viewBox="0 0 220 170" fill="none" xmlns="http://www.w3.org/2000/svg">
<path d="M110 145.37C157.116 145.37 195.312 143.647 195.312 141.522C195.312 139.396 157.116 137.673 110 137.673C62.8838 137.673 24.6885 139.396 24.6885 141.522C24.6885 143.647 62.8838 145.37 110 145.37Z" fill="#F5F5F5"/>
<path opacity="0.2" d="M118.62 109.048C118.62 109.048 86.2839 123.801 86.2839 137.778H150.964C150.96 123.801 118.62 109.048 118.62 109.048Z" fill="#2F35BE"/>
<path opacity="0.2" d="M118.62 126.65C118.62 126.65 88.7612 132.365 88.7612 137.778H148.478C148.478 132.365 118.62 126.65 118.62 126.65Z" fill="#2F35BE"/>
<path opacity="0.3" d="M122.544 113.121C128.616 117.735 140.417 127.959 140.417 137.778H132.326C132.326 127.959 125.866 117.735 122.544 113.121Z" fill="white"/>
<path opacity="0.2" d="M118.62 109.048C118.62 109.048 86.2839 94.2956 86.2839 80.3182H150.964C150.96 94.2956 118.62 109.048 118.62 109.048Z" fill="#2F35BE"/>
<path opacity="0.2" d="M118.62 107.702C118.62 107.702 102.111 101.582 102.111 95.7678H135.133C135.133 101.572 118.62 107.702 118.62 107.702Z" fill="#2F35BE"/>
<path opacity="0.3" d="M115.095 104.975C109.028 100.361 97.24 90.1374 97.24 80.3182H105.332C105.314 90.1374 111.76 100.361 115.095 104.975Z" fill="white"/>
<path opacity="0.3" d="M122.544 104.975C128.616 100.361 140.122 88.9542 140.417 80.3182H138.261C137.249 90.848 127.349 100.511 122.544 104.975Z" fill="white"/>
<path d="M146.568 75.3848H142.903V75.7248H146.568V75.3848Z" fill="#2F35BE"/>
<path d="M159.012 80.0564H158.572C158.57 78.9085 157.98 77.8077 156.93 76.9957C155.88 76.1836 154.456 75.7266 152.97 75.7248H149.103V75.3848H152.97C154.572 75.3875 156.108 75.8807 157.24 76.7563C158.372 77.6319 159.009 78.8186 159.012 80.0564Z" fill="#2F35BE"/>
<path d="M152.966 76.5748H84.2732C81.7848 76.5748 79.7676 78.1336 79.7676 80.0564V80.58C79.7676 82.5028 81.7848 84.0616 84.2732 84.0616H152.966C155.454 84.0616 157.472 82.5028 157.472 80.58V80.0564C157.472 78.1336 155.454 76.5748 152.966 76.5748Z" fill="#2F35BE"/>
<path d="M152.966 134.035H84.2732C81.7848 134.035 79.7676 135.594 79.7676 137.516V138.04C79.7676 139.963 81.7848 141.522 84.2732 141.522H152.966C155.454 141.522 157.472 139.963 157.472 138.04V137.516C157.472 135.594 155.454 134.035 152.966 134.035Z" fill="#2F35BE"/>
<path d="M61.9168 103.537L58.9336 101.49L64.02 95.455L67.0032 97.4984L61.9168 103.537Z" fill="#FF8B7B"/>
<path d="M59.5496 100.191L63.3424 102.231C63.3748 102.247 63.4029 102.267 63.425 102.291C63.4472 102.315 63.463 102.342 63.4716 102.371C63.4802 102.4 63.4814 102.43 63.4751 102.459C63.4687 102.488 63.4551 102.516 63.4348 102.541L61.534 104.961C61.4246 105.083 61.2575 105.167 61.069 105.194C60.8805 105.221 60.6856 105.19 60.5264 105.108C59.2064 104.383 58.718 104.03 57.1384 103.044C55.5772 102.096 54.0792 101.087 52.6504 100.021C51.48 99.0828 52.7164 98.175 53.3368 98.498C54.802 99.2664 57.3496 100.113 58.8236 100.045C59.08 100.029 59.3358 100.081 59.5496 100.191Z" fill="#263238"/>
<path opacity="0.2" d="M66.9989 97.5018L64.0157 95.455L61.5693 98.362L64.6273 100.324L66.9989 97.5018Z" fill="black"/>
<path d="M97.35 67.354C97.35 67.354 77.33 66.2966 74.8484 71.5394C69.2032 83.4598 61.8596 96.1044 61.8596 96.1044L67.76 99.4058C67.76 99.4058 80.234 84.6668 84.04 75.2046C91.74 76.6496 105.662 77.8838 110.145 73.9058C113.973 70.5058 111.109 67.354 111.109 67.354H97.35Z" fill="#263238"/>
<path opacity="0.3" d="M80.2032 76.619C79.7368 78.0742 79.0284 82.2426 78.5884 85.0068C79.5608 83.5516 80.4848 82.076 81.3164 80.6344L80.2032 76.619Z" fill="black"/>
<path d="M67.3816 100.898L60.6892 96.8456L62.0576 94.5744L69.5376 98.991L67.3816 100.898Z" fill="#2F35BE"/>
<path d="M57.9436 100.004C58.2539 100.16 58.5841 100.291 58.9292 100.395C58.9464 100.4 58.9649 100.401 58.9826 100.397C59.0003 100.394 59.0166 100.387 59.0294 100.377C59.0423 100.367 59.0512 100.355 59.0553 100.341C59.0594 100.328 59.0584 100.313 59.0524 100.3C58.9952 100.184 58.4936 99.1678 57.97 99.0692C57.91 99.0586 57.8474 99.0599 57.7882 99.0729C57.7289 99.086 57.6749 99.1105 57.6312 99.144C57.5576 99.1891 57.5006 99.2482 57.4658 99.3157C57.4311 99.3831 57.4198 99.4564 57.4332 99.5282C57.5222 99.7298 57.7038 99.8991 57.9436 100.004ZM58.7928 100.191C58.102 99.96 57.6708 99.705 57.6224 99.5112C57.6148 99.4639 57.6239 99.4158 57.6487 99.3721C57.6735 99.3285 57.713 99.2908 57.7632 99.263C57.7835 99.2461 57.8094 99.2337 57.838 99.2271C57.8666 99.2205 57.897 99.22 57.926 99.2256C58.2076 99.28 58.5728 99.7866 58.7928 100.191Z" fill="#2F35BE"/>
<path d="M58.9073 100.385C58.9217 100.388 58.9369 100.388 58.9513 100.385C58.9677 100.386 58.9844 100.385 58.9997 100.38C59.015 100.375 59.0286 100.368 59.0393 100.358C59.0701 100.331 59.8181 99.62 59.7081 99.1814C59.6936 99.1253 59.6627 99.0726 59.6177 99.0272C59.5727 98.9818 59.5148 98.945 59.4485 98.9196C59.3809 98.8869 59.3013 98.8721 59.2219 98.8777C59.1424 98.8832 59.0675 98.9087 59.0085 98.9502C58.6741 99.1916 58.6873 100.008 58.8853 100.344C58.8882 100.359 58.8958 100.373 58.9073 100.385ZM59.3957 99.0828C59.4275 99.0991 59.4548 99.1201 59.476 99.1446C59.4972 99.1691 59.5117 99.1967 59.5189 99.2256C59.5849 99.484 59.2285 99.9294 58.9953 100.174C58.8721 99.8342 58.9117 99.229 59.1273 99.0726C59.1713 99.042 59.2329 99.0114 59.3605 99.0726L59.3957 99.0828Z" fill="#2F35BE"/>
<path d="M88.22 107.103L84.37 107.698L83.6572 99.7322L87.5688 99.8274L88.22 107.103Z" fill="#FF8B7B"/>
<path d="M83.8464 106.61L88.2464 105.179C88.2824 105.165 88.3216 105.157 88.3616 105.156C88.4017 105.154 88.4418 105.158 88.4796 105.169C88.5173 105.179 88.552 105.195 88.5815 105.217C88.611 105.238 88.6347 105.263 88.6512 105.291L90.332 107.902C90.4089 108.044 90.4109 108.203 90.3377 108.345C90.2645 108.487 90.1218 108.602 89.9404 108.664C88.4004 109.143 87.6348 109.31 85.7032 109.942C84.5152 110.33 81.3032 111.452 79.5872 111.782C77.8712 112.112 77.484 110.782 78.1792 110.524C79.8248 109.912 82.5528 108.045 83.2876 107.015C83.4128 106.837 83.6087 106.695 83.8464 106.61Z" fill="#263238"/>
<path d="M82.7507 107.59C83.0974 107.467 83.4263 107.317 83.7319 107.141C83.7471 107.132 83.7588 107.12 83.7658 107.106C83.7727 107.092 83.7747 107.077 83.7715 107.063C83.7664 107.048 83.7563 107.035 83.7423 107.025C83.7284 107.015 83.7111 107.008 83.6923 107.005C83.5339 106.978 82.1083 106.757 81.7079 107.056C81.6623 107.09 81.629 107.133 81.6112 107.18C81.5935 107.227 81.5919 107.277 81.6067 107.324C81.6166 107.398 81.6515 107.468 81.7079 107.528C81.7644 107.588 81.8403 107.635 81.9279 107.664C82.2047 107.719 82.4979 107.692 82.7507 107.59ZM83.4239 107.12C82.7859 107.46 82.2623 107.607 82.0027 107.528C81.9448 107.508 81.8953 107.475 81.8596 107.435C81.8239 107.394 81.8034 107.346 81.8003 107.297C81.7919 107.274 81.7914 107.25 81.7992 107.226C81.8069 107.203 81.8225 107.182 81.8443 107.165C82.0599 107.005 82.8519 107.046 83.4239 107.12Z" fill="#2F35BE"/>
<path d="M83.7101 107.151C83.725 107.145 83.7385 107.137 83.7497 107.127C83.757 107.116 83.7608 107.104 83.7608 107.091C83.7608 107.079 83.757 107.067 83.7497 107.056C83.7497 107.018 83.3449 106.121 82.7905 105.954C82.7192 105.932 82.6422 105.924 82.5657 105.929C82.4893 105.934 82.4155 105.953 82.3505 105.985C82.2733 106.011 82.2102 106.058 82.1718 106.116C82.1334 106.174 82.1219 106.24 82.1393 106.304C82.2273 106.644 83.1557 107.103 83.6441 107.154C83.6658 107.16 83.6895 107.159 83.7101 107.151ZM82.5089 106.1C82.5451 106.089 82.584 106.083 82.6233 106.083C82.6625 106.083 82.7014 106.089 82.7377 106.1C83.0677 106.199 83.3713 106.685 83.5209 106.978C83.0809 106.865 82.4077 106.515 82.3505 106.277C82.3505 106.233 82.3505 106.175 82.4693 106.121L82.5089 106.1Z" fill="#2F35BE"/>
<path opacity="0.2" d="M87.5732 99.8308L83.6572 99.7322L84.0312 103.894L87.9296 103.839L87.5732 99.8308Z" fill="black"/>
<path d="M107.074 67.354C107.074 67.354 78.4741 69.445 79.5037 76.0988C81.0085 85.697 82.1085 102.503 82.1085 102.503L89.3993 102.724C89.3993 102.724 92.1361 87.9478 90.5345 78.1184C97.9397 78.1184 114.026 78.421 116.855 75.463C120.213 71.9542 118.659 67.354 118.659 67.354H107.074Z" fill="#263238"/>
<path d="M90.2044 103.071L81.4528 102.734L81.1404 99.7934L90.7368 100.303L90.2044 103.071Z" fill="#2F35BE"/>
<path d="M100.725 47.8686C100.663 48.4772 100.593 49.0178 100.496 49.5856C100.399 50.1534 100.307 50.7076 100.192 51.2686C99.9812 52.3872 99.6908 53.499 99.3652 54.6176C99.0396 55.7362 98.6392 56.8514 98.1376 57.9768C97.6284 59.1607 96.9603 60.3002 96.1444 61.3768C95.6573 62.0102 95.0657 62.5919 94.3844 63.1074C94.204 63.2377 94.0145 63.3603 93.8168 63.4746C93.6364 63.5902 93.456 63.6888 93.2712 63.7874C92.9194 63.9791 92.5536 64.1551 92.1756 64.3144C90.7803 64.901 89.3045 65.3651 87.7756 65.6982C87.0496 65.8716 86.3192 66.011 85.5756 66.1368C84.832 66.2626 84.1236 66.3714 83.3756 66.4598C81.9196 66.6439 80.45 66.7574 78.9756 66.7998C78.6121 66.8117 78.2554 66.7214 77.9714 66.5457C77.6874 66.3699 77.4954 66.1206 77.431 65.8439C77.3666 65.5672 77.4341 65.2819 77.621 65.0407C77.8079 64.7995 78.1016 64.6188 78.4476 64.532L78.5048 64.515C81.085 63.8843 83.6163 63.1396 86.086 62.2846C87.2216 61.8875 88.3085 61.4118 89.3332 60.8634C89.5664 60.7342 89.7732 60.6016 89.9844 60.469C90.0812 60.4044 90.1824 60.3398 90.266 60.2718C90.344 60.2176 90.4175 60.1597 90.486 60.0984C90.7781 59.8255 91.0291 59.5278 91.234 59.211C91.7679 58.3731 92.1967 57.4975 92.5144 56.5964C92.8708 55.641 93.1788 54.6448 93.434 53.6316C93.6892 52.6184 93.918 51.5916 94.1336 50.5512C94.3492 49.5108 94.512 48.45 94.6616 47.464V47.4062C94.7718 46.81 95.1757 46.2697 95.7891 45.8981C96.4025 45.5265 97.178 45.3524 97.9535 45.4121C98.7291 45.4717 99.4449 45.7606 99.9514 46.2183C100.458 46.6761 100.716 47.2673 100.672 47.8686H100.725Z" fill="#2F35BE"/>
<path d="M79.1209 63.92L76.9209 64.0254L78.6809 67.1534C78.6809 67.1534 82.4869 67.0888 82.4077 65.6404L81.7213 64.9604C81.4072 64.6552 81.0131 64.4048 80.565 64.2255C80.1168 64.0462 79.6247 63.9421 79.1209 63.92Z" fill="#FF8B7B"/>
<path d="M74.5095 64.2838L76.4103 67.1602H78.6763L76.9163 64.0322L74.5095 64.2838Z" fill="#FF8B7B"/>
<path d="M100.408 43.0474L104.663 42.3674L108.051 41.99C108.535 41.9288 109.027 41.9117 109.516 41.939C110.816 42.0301 112.05 42.4256 113.051 43.0726C114.053 43.7196 114.775 44.5874 115.122 45.56C115.971 47.94 116.736 50.8606 117.322 53.448C118.14 57.0418 118.562 62.441 118.642 67.3506H98.4853C98.0453 58.4596 95.5989 52.7306 94.7673 49.1776C94.5168 48.1049 94.7295 46.9984 95.3727 46.0284C96.0159 45.0583 97.0539 44.2785 98.3269 43.809L100.408 43.0474Z" fill="#2F35BE"/>
<path d="M98.4851 45.0024C98.5335 46.4644 98.9251 51.6766 100.954 54.638C101.31 51.8636 105.574 43.418 105.574 43.418L98.4851 45.0024Z" fill="#F5F5F5"/>
<path opacity="0.3" d="M117.784 55.8892C117.784 55.8348 117.784 55.7838 117.757 55.726L117.718 55.4812C117.696 55.3486 117.674 55.216 117.652 55.0902L117.586 54.7264L117.52 54.3864C117.52 54.2912 117.48 54.1926 117.462 54.1008C117.418 53.8832 117.374 53.6724 117.326 53.465C117.181 52.8292 117.027 52.1696 116.86 51.5066V51.4522C116.692 50.7722 116.521 50.116 116.336 49.453V49.4088C116.261 49.1232 116.182 48.8444 116.098 48.5622L116.006 48.2494L115.848 47.7088L115.716 47.2872L115.689 47.1988C115.513 46.6412 115.333 46.0938 115.148 45.577L112.09 44.3326C112.442 45.3764 112.776 46.5256 113.093 47.702C112.727 47.85 112.39 48.0365 112.09 48.2562C111.36 48.7594 111.386 49.8304 112.116 51.0986C114.138 54.725 115.258 58.6133 115.416 62.56C115.509 64.1614 115.566 65.7832 115.592 67.3574H118.672C118.584 63.4576 118.303 59.2552 117.784 55.8892Z" fill="black"/>
<path d="M103.079 36.4956L101.35 38.5356L98.9999 41.3066C99.3023 41.5446 99.5481 41.822 99.7259 42.126C100.166 42.806 100.509 43.2956 98.6919 44.251C98.3047 44.455 98.2915 44.778 98.3795 45.135C98.4851 45.5702 98.8195 46.0258 100.773 45.7572C102.661 45.4765 104.384 44.7381 105.692 43.6492C106.344 43.1426 106.194 42.7652 105.565 42.2416C103.787 40.7626 103.255 38.3996 103.079 36.4956Z" fill="#FF8B7B"/>
<path d="M98.9253 45.8082L100.17 46.4134L102.194 45.7504C101.717 45.3782 101.102 45.1299 100.434 45.0398C99.8527 45.1889 99.3322 45.454 98.9253 45.8082Z" fill="#263238"/>
<path d="M100.412 45.0398C101.341 45.3356 101.807 46.002 102.23 46.7704C102.23 46.7704 106.678 44.166 106.77 42.449C106.533 41.8642 105.42 41.9662 105.42 41.9662C105.42 41.9662 104.064 43.7818 100.412 45.0398Z" fill="white"/>
<path d="M100.412 45.0398C99.9785 45.1754 99.61 45.4119 99.3578 45.7164C99.1055 46.021 98.982 46.3786 99.0043 46.7398C99.0043 46.7398 97.0243 44.9446 98.6347 43.588C99.0717 43.4109 99.5359 43.2772 100.016 43.1902C100.016 43.1902 99.5323 43.9382 100.412 45.0398Z" fill="white"/>
<path d="M100.562 46.1312H99.9943C99.8095 46.376 99.5543 49.5652 99.4531 51.2618C99.7251 52.2523 100.125 53.2193 100.646 54.1484C100.644 54.1597 100.644 54.1711 100.646 54.1824C100.676 54.2368 100.707 54.2878 100.742 54.3388C100.804 54.4408 100.866 54.5428 100.936 54.638C101.139 53.5848 101.456 52.5464 101.882 51.5338C101.301 49.5686 100.562 46.1312 100.562 46.1312Z" fill="#263238"/>
<path opacity="0.2" d="M99.5808 40.6232L101.024 38.6478C101.05 38.6954 101.086 38.7532 101.121 38.8076C101.247 39.0542 101.35 39.3076 101.429 39.5658C101.693 40.4464 100.813 41.6976 99.8404 42.2858C99.8008 42.2314 99.7656 42.1736 99.726 42.1158C99.5529 41.8303 99.3293 41.5649 99.0616 41.327L99.0044 41.293L99.5808 40.6232Z" fill="black"/>
<path d="M92.5495 36.38C92.2019 35.173 94.6879 33.5036 94.6879 33.5036L91.7443 32.7114C90.4155 33.4492 91.2779 35.5538 92.5495 36.38Z" fill="#263238"/>
<path d="M102.467 32.8916C103.163 35.9108 103.787 37.6516 102.318 39.5794C101.857 40.2124 101.181 40.736 100.363 41.0936C99.5456 41.4512 98.6167 41.6291 97.6773 41.6081C96.7379 41.5871 95.8239 41.3679 95.0341 40.9744C94.2443 40.5809 93.6089 40.0279 93.1965 39.3754C91.5465 36.8866 90.6885 32.3714 94.0457 30.3892C94.7572 29.946 95.6069 29.655 96.5097 29.5455C97.4125 29.436 98.3367 29.5117 99.1897 29.7652C100.043 30.0186 100.794 30.4409 101.37 30.9896C101.945 31.5383 102.323 32.1942 102.467 32.8916Z" fill="#FF8B7B"/>
<path d="M102.52 35.9448L100.672 35.5538V33.7178C100.672 33.7178 98.3355 32.6978 98.6963 31.4228C98.8753 30.706 99.1269 30.0011 99.4487 29.3148C99.4487 29.3148 103.154 29.1312 104.289 29.4984C103.995 29.7446 103.675 29.972 103.334 30.1784C104.222 30.6533 104.984 31.2559 105.578 31.9532C105.114 32.0331 104.68 32.1948 104.311 32.4258C104.311 32.4258 104.795 34.9452 102.52 35.9448Z" fill="#263238"/>
<path d="M98.2695 27.3564C99.6291 28.016 98.8415 29.2264 98.8415 29.2264L102.48 29.2842C102.287 28.3968 99.1319 27.3122 98.2695 27.3564Z" fill="#263238"/>
<path d="M99.6909 32.0416C99.4313 32.606 96.4833 33.2996 93.7949 33.3676C92.4549 33.3451 91.1289 33.1521 89.8701 32.7964C90.2496 32.4952 90.6969 32.2498 91.1901 32.0722C89.5665 31.7628 87.5117 30.6612 86.9441 29.7636C88.1295 29.4362 89.4101 29.3726 90.6401 29.58C90.2375 29.3174 89.9068 28.9955 89.6673 28.6329C89.4278 28.2704 89.2844 27.8745 89.2453 27.4686C89.2453 27.4686 96.1269 29.5766 98.7757 28.7028C101.653 27.7508 103.84 29.5358 101.948 30.8958C100.056 32.2558 99.6909 32.0416 99.6909 32.0416Z" fill="#263238"/>
<path d="M104.57 35.0778C104.608 35.7437 104.328 36.397 103.783 36.9138C103.07 37.57 101.961 37.0464 101.706 36.2338C101.477 35.496 101.776 34.357 102.714 34.0034C103.651 33.6498 104.522 34.2516 104.57 35.0778Z" fill="#FF8B7B"/>
<path d="M96.5184 35.7C96.6152 35.938 96.5184 36.1726 96.3424 36.2304C96.1664 36.2882 95.9024 36.1386 95.8012 35.8904C95.7 35.6422 95.8012 35.4178 95.9772 35.36C96.1532 35.3022 96.4172 35.4484 96.5184 35.7Z" fill="#263238"/>
<path d="M93.1085 36.652C93.2053 36.8866 93.1085 37.1246 92.9325 37.179C92.7565 37.2334 92.4925 37.0906 92.3913 36.839C92.2901 36.5874 92.3913 36.3664 92.5673 36.312C92.7433 36.2576 93.0073 36.414 93.1085 36.652Z" fill="#263238"/>
<path d="M94.2743 36.5262C94.2887 37.2298 94.1821 37.9318 93.9575 38.6138C94.1808 38.6505 94.4118 38.6485 94.634 38.6079C94.8562 38.5674 95.0639 38.4892 95.2423 38.3792L94.2743 36.5262Z" fill="#A02724"/>
<path d="M96.3599 39.287C96.7132 39.1955 97.0393 39.0503 97.3189 38.8599C97.5985 38.6695 97.8259 38.4379 97.9879 38.1786C97.9967 38.1605 97.9962 38.1405 97.9863 38.1228C97.9765 38.1051 97.9581 38.0909 97.9351 38.0834C97.9239 38.0795 97.9118 38.0773 97.8994 38.0771C97.8871 38.0769 97.8748 38.0785 97.8633 38.082C97.8519 38.0855 97.8414 38.0907 97.8326 38.0974C97.8237 38.1041 97.8167 38.112 97.8119 38.1208C97.6333 38.402 97.3734 38.6476 97.0521 38.8386C96.7309 39.0297 96.357 39.161 95.9595 39.2224C95.9472 39.2244 95.9356 39.2283 95.9253 39.2339C95.915 39.2394 95.9063 39.2466 95.8997 39.2549C95.8931 39.2632 95.8888 39.2724 95.887 39.282C95.8851 39.2916 95.8859 39.3014 95.8891 39.3108C95.8944 39.3293 95.909 39.3454 95.9296 39.3556C95.9502 39.3658 95.9752 39.3692 95.9991 39.3652C96.1215 39.3452 96.242 39.3191 96.3599 39.287Z" fill="#263238"/>
<path d="M97.2752 34.306C97.3023 34.2935 97.325 34.276 97.3412 34.255C97.3551 34.2392 97.3648 34.2215 97.3697 34.2028C97.3745 34.184 97.3745 34.1648 97.3696 34.1461C97.3647 34.1274 97.3549 34.1096 97.341 34.0939C97.327 34.0781 97.3092 34.0647 97.2884 34.0544C97.0411 33.9265 96.757 33.8472 96.461 33.8235C96.165 33.7998 95.866 33.8324 95.59 33.9184C95.5674 33.9267 95.5472 33.9383 95.5305 33.9526C95.5138 33.9669 95.5008 33.9836 95.4925 34.0017C95.4841 34.0199 95.4804 34.0391 95.4817 34.0584C95.4829 34.0776 95.4891 34.0965 95.4998 34.1139C95.5105 34.1313 95.5255 34.1469 95.544 34.1598C95.5625 34.1728 95.5841 34.1828 95.6076 34.1892C95.6311 34.1957 95.656 34.1985 95.6809 34.1976C95.7058 34.1966 95.7302 34.1919 95.7528 34.1836C95.9685 34.1189 96.2013 34.0956 96.4312 34.1158C96.6611 34.1359 96.8813 34.1988 97.0728 34.2992C97.1022 34.315 97.1369 34.3241 97.1727 34.3253C97.2085 34.3265 97.2441 34.3198 97.2752 34.306Z" fill="#263238"/>
<path d="M92.4309 35.2206C92.4394 35.1972 92.4394 35.1725 92.4309 35.1492C92.4115 35.1137 92.3747 35.0856 92.3286 35.0709C92.2824 35.0563 92.2307 35.0563 92.1845 35.071C91.9075 35.1541 91.6612 35.2889 91.4678 35.4633C91.2744 35.6377 91.1397 35.8463 91.0757 36.0706C91.0746 36.1058 91.09 36.1402 91.119 36.1674C91.148 36.1945 91.1888 36.2127 91.2338 36.2185C91.2788 36.2243 91.3249 36.2173 91.3638 36.1989C91.4027 36.1805 91.4316 36.1518 91.4453 36.1182C91.5002 35.9433 91.6088 35.7812 91.762 35.6456C91.9152 35.5101 92.1084 35.4051 92.3253 35.3396C92.3548 35.3285 92.38 35.3117 92.3985 35.2909C92.417 35.27 92.4282 35.2458 92.4309 35.2206Z" fill="#263238"/>
<path d="M114.185 44.098C114.669 44.5604 115.091 44.9786 115.505 45.424C115.918 45.8694 116.349 46.3114 116.754 46.7636C117.577 47.6646 118.343 48.5996 119.091 49.5516C119.839 50.5036 120.534 51.4964 121.159 52.547C121.837 53.6369 122.375 54.7757 122.765 55.947C122.983 56.6279 123.099 57.3262 123.108 58.0278C123.097 58.7293 122.967 59.4266 122.721 60.1018C122.282 61.2774 121.643 62.4025 120.82 63.4474C120.441 63.9472 120.032 64.4266 119.605 64.889C119.179 65.3514 118.725 65.8002 118.285 66.232C117.367 67.1003 116.368 67.9161 115.298 68.6732C115.03 68.8577 114.686 68.9624 114.327 68.9685C113.968 68.9746 113.618 68.8817 113.34 68.7064C113.062 68.5312 112.874 68.2851 112.809 68.0124C112.745 67.7396 112.808 67.458 112.988 67.218L113.027 67.167C114.394 65.454 115.588 63.6626 116.6 61.8086C117.054 60.973 117.385 60.1005 117.586 59.2076C117.659 58.849 117.679 58.485 117.643 58.123C117.59 57.7647 117.49 57.4115 117.344 57.069C116.963 56.1996 116.485 55.3578 115.914 54.553C115.329 53.6996 114.669 52.853 113.965 51.9928C113.261 51.1326 112.521 50.2928 111.765 49.4666L110.607 48.2222C110.22 47.8176 109.815 47.3858 109.45 47.0152L109.424 46.988C108.928 46.502 108.702 45.8836 108.796 45.2689C108.89 44.6543 109.296 44.0936 109.925 43.7104C110.554 43.3272 111.355 43.1527 112.15 43.2254C112.945 43.2981 113.671 43.612 114.167 44.098H114.185Z" fill="#2F35BE"/>
<path d="M72.2612 69.1798L109.696 67.8708C109.815 67.8648 109.933 67.8773 110.045 67.9075C110.156 67.9377 110.259 67.985 110.347 68.0466C110.434 68.1082 110.505 68.1828 110.554 68.2659C110.603 68.349 110.63 68.439 110.634 68.5304L71.4076 69.8904C71.4023 69.8002 71.4203 69.7102 71.4605 69.6255C71.5007 69.5407 71.5623 69.463 71.6418 69.3969C71.7212 69.3308 71.8169 69.2775 71.9233 69.2402C72.0296 69.203 72.1445 69.1824 72.2612 69.1798Z" fill="#2F35BE"/>
<g opacity="0.6">
<path d="M72.2612 69.1798L109.696 67.8708C109.815 67.8648 109.933 67.8773 110.045 67.9075C110.156 67.9377 110.259 67.985 110.347 68.0466C110.434 68.1082 110.505 68.1828 110.554 68.2659C110.603 68.349 110.63 68.439 110.634 68.5304L71.4076 69.8904C71.4023 69.8002 71.4203 69.7102 71.4605 69.6255C71.5007 69.5407 71.5623 69.463 71.6418 69.3969C71.7212 69.3308 71.8169 69.2775 71.9233 69.2402C72.0296 69.203 72.1445 69.1824 72.2612 69.1798Z" fill="white"/>
</g>
<path d="M66.3035 55.76L92.9367 54.8284C93.1076 54.8302 93.2736 54.8726 93.4121 54.9498C93.5507 55.0271 93.6551 55.1355 93.7111 55.2602L98.8239 67.796C98.8515 67.8478 98.862 67.904 98.8547 67.9597C98.8473 68.0154 98.8223 68.0688 98.7818 68.1152C98.7413 68.1616 98.6866 68.1996 98.6226 68.2258C98.5586 68.2519 98.4872 68.2655 98.4147 68.2652L71.7815 69.1968C71.6117 69.1956 71.4464 69.1537 71.3086 69.077C71.1707 69.0003 71.0669 68.8925 71.0115 68.7684L65.8987 56.2292C65.8713 56.1777 65.8608 56.1218 65.8679 56.0664C65.875 56.0109 65.8996 55.9577 65.9396 55.9114C65.9796 55.8651 66.0337 55.827 66.0971 55.8006C66.1606 55.7742 66.2315 55.7603 66.3035 55.76Z" fill="#2F35BE"/>
<path opacity="0.6" d="M66.3035 55.76L92.9367 54.8284C93.1076 54.8302 93.2736 54.8726 93.4121 54.9498C93.5507 55.0271 93.6551 55.1355 93.7111 55.2602L98.8239 67.796C98.8515 67.8478 98.862 67.904 98.8547 67.9597C98.8473 68.0154 98.8223 68.0688 98.7818 68.1152C98.7413 68.1616 98.6866 68.1996 98.6226 68.2258C98.5586 68.2519 98.4872 68.2655 98.4147 68.2652L71.7815 69.1968C71.6117 69.1956 71.4464 69.1537 71.3086 69.077C71.1707 69.0003 71.0669 68.8925 71.0115 68.7684L65.8987 56.2292C65.8713 56.1777 65.8608 56.1218 65.8679 56.0664C65.875 56.0109 65.8996 55.9577 65.9396 55.9114C65.9796 55.8651 66.0337 55.827 66.0971 55.8006C66.1606 55.7742 66.2315 55.7603 66.3035 55.76Z" fill="white"/>
<path opacity="0.5" d="M93.72 55.2568L98.8328 67.7926C98.8612 67.8445 98.8725 67.9011 98.8656 67.9573C98.8588 68.0134 98.8339 68.0674 98.7933 68.1143C98.7527 68.1612 98.6977 68.1995 98.6331 68.2258C98.5686 68.2522 98.4966 68.2657 98.4236 68.2652L92.9456 54.825C93.1164 54.8268 93.2824 54.8692 93.421 54.9464C93.5595 55.0237 93.6639 55.1321 93.72 55.2568Z" fill="#2F35BE"/>
<path opacity="0.5" d="M99.8535 68.2142L109.696 67.8742C109.814 67.8682 109.933 67.8807 110.045 67.9109C110.156 67.9411 110.259 67.9884 110.346 68.05C110.434 68.1116 110.504 68.1862 110.554 68.2693C110.603 68.3524 110.63 68.4424 110.634 68.5338L98.9999 68.9384C98.9922 68.8471 99.0084 68.7556 99.0474 68.6693C99.0865 68.583 99.1478 68.5037 99.2274 68.436C99.3071 68.3684 99.4037 68.3139 99.5112 68.2758C99.6188 68.2377 99.7352 68.2167 99.8535 68.2142Z" fill="#2F35BE"/>
<path d="M112.288 67.0752L109.771 67.3574L112.35 70.1284C112.35 70.1284 116.446 69.6218 115.971 68.2176L115.091 67.6532C114.702 67.4108 114.252 67.2341 113.769 67.1345C113.286 67.0349 112.782 67.0147 112.288 67.0752Z" fill="#FF8B7B"/>
<path d="M106.691 68.187L109.846 70.312L112.35 70.1284L109.771 67.3574L106.691 68.187Z" fill="#FF8B7B"/>
</svg>
