<svg width="11" height="11" viewBox="0 0 11 11" fill="none" xmlns="http://www.w3.org/2000/svg">
<g id="Copyright">
<path id="Vector" d="M5.5 9.625C7.77817 9.625 9.625 7.77817 9.625 5.5C9.625 3.22183 7.77817 1.375 5.5 1.375C3.22183 1.375 1.375 3.22183 1.375 5.5C1.375 7.77817 3.22183 9.625 5.5 9.625Z" stroke="#FCFCFC" stroke-linecap="round" stroke-linejoin="round"/>
<path id="Vector_2" d="M6.87504 6.53128C6.65856 6.8198 6.35679 7.0329 6.01248 7.1404C5.66817 7.2479 5.29876 7.24435 4.95657 7.13025C4.61439 7.01616 4.31677 6.79729 4.10588 6.50466C3.89498 6.21204 3.7815 5.86047 3.78149 5.49977C3.78149 5.13906 3.89497 4.7875 4.10586 4.49486C4.31676 4.20223 4.61437 3.98337 4.95655 3.86926C5.29874 3.75516 5.66814 3.75161 6.01246 3.8591C6.35678 3.9666 6.65854 4.1797 6.87503 4.46822" stroke="#FCFCFC" stroke-linecap="round" stroke-linejoin="round"/>
</g>
</svg>
