<svg width="35" height="37" viewBox="0 0 35 37" fill="none" xmlns="http://www.w3.org/2000/svg">
<path d="M13.3292 32.623V28.3117L13.7671 28.0943C15.7463 26.8806 15.9565 23.4206 14.2225 20.3773C12.4885 17.334 9.4759 15.8667 7.47917 17.0804C5.48243 18.2941 5.25473 21.7359 7.00626 24.7792C7.27099 25.2575 7.58202 25.7066 7.93456 26.1198V29.4167L3.64333 26.8625V10.8851L2.13703 9.85254C0.722504 12.5163 -0.0128855 15.5087 0.000170868 18.5477C-0.00245628 23.2473 1.76092 27.7639 4.91795 31.144C8.07498 34.524 12.3785 36.5029 16.9199 36.6627V34.8512L13.3292 32.6774" fill="#B62A1B"/>
<path d="M8.33731 7.33455L10.9646 8.94678C10.9445 9.31482 10.9445 9.68374 10.9646 10.0518C10.9646 12.443 14.1173 14.2545 17.5328 14.2182C20.9483 14.182 23.3654 12.0444 23.3478 9.9431C23.3478 7.55192 21.1059 5.68609 17.708 5.5774C16.7713 5.56969 15.8369 5.67301 14.923 5.88535L13.0139 4.61731L17.5153 1.93629L30.9319 9.99744L32.4558 9.12792C30.9446 6.52811 28.8164 4.37065 26.2729 2.86015C22.3393 0.521605 17.6818 -0.147029 13.2811 0.995042C8.88041 2.13711 5.07991 5.00077 2.6799 8.98301L4.20372 9.97933L8.37235 7.33455" fill="#2B3776"/>
<path d="M31.3698 16.1022L28.5323 17.6419C28.4273 17.6419 27.7967 17.026 27.6391 16.9355C25.6248 15.7761 22.6472 17.3159 21.0008 20.3954C19.3544 23.4749 19.477 27.0074 21.4912 28.1667C23.5055 29.3261 26.5181 27.9312 28.182 24.8517C28.4933 24.1531 28.7567 23.4328 28.9702 22.696L31.4048 21.2468V26.6813L18.0057 34.8511V36.6626C20.993 36.5707 23.9079 35.6897 26.473 34.1035C29.0382 32.5173 31.1682 30.2786 32.6604 27.6005C34.1526 24.9223 34.9574 21.8939 34.9983 18.8032C35.0391 15.7125 34.3146 12.6624 32.8936 9.94308L31.3523 10.8126V16.1022" fill="#EC9D23"/>
</svg>
