<svg width="36" height="32" viewBox="0 0 36 32" fill="none" xmlns="http://www.w3.org/2000/svg">
<g id="Fab_Lab_logo 1" clip-path="url(#clip0_81_8)">
<g id="g3">
<path id="path5" d="M14.1591 28.3758V24.6445C14.3111 24.5933 14.4593 24.5322 14.6017 24.4581C16.6208 23.4093 16.833 20.4297 15.0754 17.8034C13.3179 15.177 10.2564 13.8983 8.23739 14.9471C6.21831 15.996 6.00612 18.9755 7.76345 21.6019C8.04702 22.0255 8.36475 22.4134 8.70632 22.7628V25.5348L4.35459 23.3405V9.59743L2.82926 8.71025C1.43973 10.9409 0.649494 13.5024 0.649494 16.2265C0.649494 24.6905 8.27188 31.5812 17.8013 31.8593L17.8029 30.2468L14.1591 28.3758Z" fill="#B8281F"/>
<path id="path7" d="M8.85315 6.53784L11.513 7.92672C11.4605 8.3118 11.4589 8.73573 11.4605 8.88148C11.4849 10.9465 14.659 12.5163 18.1191 12.4847C21.5793 12.4531 24.0438 10.6062 24.0263 8.78906C24.0065 6.72411 21.7528 5.10736 18.2939 5.01649C17.123 4.9857 15.9942 5.19171 15.4802 5.27824L13.5403 4.18488L18.1541 1.86545L31.7552 8.83129L33.3151 8.07688C31.8145 5.90286 29.6892 4.02144 27.0098 2.66221C18.6847 -1.56091 8.10376 0.821243 3.07565 7.95894L4.62281 8.81973L8.85315 6.53784Z" fill="#ffffff"/>
<path id="path9" d="M32.1411 14.1092L29.2488 15.4412C29.144 15.4258 28.5019 14.8963 28.3575 14.8253C26.3099 13.8202 23.2955 15.1491 21.6114 17.8125C19.9273 20.4758 20.0709 23.521 22.1183 24.5263C24.166 25.5313 27.2149 24.3255 28.8992 21.6622C29.1708 21.2325 29.5336 20.2351 29.7032 19.799L32.1672 18.5439L32.1526 23.3093L18.5879 30.2891L18.5944 31.8617C21.4813 31.7912 24.3894 31.0976 27.0574 29.7211C35.3469 25.4443 38.2441 16.1669 33.7013 8.78093L32.1411 9.5358V14.1092Z" fill="#E3A327"/>
</g>
</g>
<defs>
<clipPath id="clip0_81_8">
<rect width="36" height="32" fill="white"/>
</clipPath>
</defs>
</svg>
